<svg width="24" height="24" viewBox="0 0 w-6 h-6" fill="none" xmlns="http://www.w3.org/2000/svg">
<path fill-rule="evenodd" clip-rule="evenodd" d="M62.9947 25.6143C59.3221 14.1306 66.5864 1.93956 78.6233 1.24919C90.2068 0.584823 104.161 0.711425 126.871 0.917478C133.656 0.979046 139.843 0.9516 145.575 0.926172H145.575L145.575 0.926175C172.188 0.808111 189.001 0.733529 210.449 9.81115C236.517 20.8441 253.842 34.7959 269.702 58.321C285.563 81.8461 294.192 109.395 294.5 137.483C294.808 165.57 290.465 198.181 275.116 221.364C261.523 241.896 250.47 255.074 230.176 265.089C229.116 265.612 228.032 266.168 226.932 266.733L226.929 266.735L226.928 266.735C222.627 268.942 218.063 271.284 213.564 272.349C204.381 274.521 185.048 276.841 144.423 276.558C119.3 276.382 96.0897 274.717 78.6272 272.561C66.6098 271.078 59.9154 258.758 64.2377 247.447L70.9758 229.814C75.9794 216.721 66.3106 202.675 52.2934 202.675L20.4804 202.675C9.43466 202.675 0.480343 193.721 0.480338 182.675V168L0.480351 151.5C0.480343 140.454 9.43466 131.5 20.4804 131.5H42.4803H51.1194C62.1106 131.5 70.8388 140.364 70.5229 151.351C69.7168 179.396 70.4669 210.761 100.877 210.973C110.675 211.041 120.835 211.358 130.651 211.664C155.201 212.43 177.608 213.128 186.862 209.708C188.243 209.198 189.546 208.489 190.849 207.78C191.753 207.288 192.656 206.796 193.585 206.371C203.974 201.619 211.35 195.401 216.025 184.555C216.611 183.196 217.299 181.881 218.008 180.582C223.959 169.675 223.718 152.801 223.533 139.804L223.533 139.803C223.518 138.743 223.503 137.708 223.492 136.705C223.338 122.661 219.024 108.887 211.093 97.1244C203.163 85.3619 191.973 76.1391 178.94 70.6227C168.008 65.9958 156.394 66.0614 144.652 66.1277C142.394 66.1405 140.132 66.1533 137.869 66.1327L90.2291 65.7005C81.5978 65.6222 73.9967 60.0153 71.3673 51.7937L62.9947 25.6143Z" fill="#96DC1E"/>
</svg>
